PathFileType	4	(X/Y/Z)	C:\Users\°ÂÌØÂü\Desktop\20210112\bx_n_0_1801-Unnamed.trc
DataRate	CameraRate	NumFrames	NumMarkers	Units	OrigDataRate	OrigDataStartFrame	OrigNumFrames
50.00	50.00	       8	0	mm	50.00	100	       397
Frame#	Time	
		

100	1.980	-695.98566	-74.47334	1542.43628	-618.79565	236.53123	1068.93945	-696.30164	285.79874	875.97253	-693.86749	74.04266	573.90234	-600.64941	217.89351	800.96399	-700.15356	266.68082	746.65625	-733.31580	249.02432	641.71790				-669.06824	13.81691	520.97986	-724.61981	242.22853	577.25470	-669.53699	202.41310	537.12225	-763.03656	252.30190	502.48285	-718.82703	70.23386	216.57608	-649.92645	-68.84210	161.06445	-711.36133	150.43683	216.61525	-764.52850	227.22353	206.68672	-608.48578	-75.81619	157.35867	-882.56342	296.15866	144.77913	-673.66760	53.70229	158.68236	-599.50232	24.22571	168.62570	-552.63641	-33.90861	164.34647	-588.93195	212.12927	175.01993	-654.45160	293.72531	155.24428	-619.01843	302.12885	157.99565	-554.15045	249.30099	166.42787	-528.17371	303.89426	146.62564	-656.70709	112.45444	1851.87000	-710.19720	285.55219	1537.06641	-517.56390	-72.85018	143.35800	-792.79346	39.62371	174.72758	-794.27002	178.69542	184.67653	-817.30127	99.50330	1064.80493	-763.41949	-42.23059	488.64581	-759.75513	-18.64234	206.97821	-875.99792	-78.69180	141.55168	-605.29150	99.18240	1353.71851	-684.98511	140.99361	580.24609	-674.32605	167.69772	158.07874	-689.06531	-74.84199	874.88013	-623.93176	-10.90405	1058.26794	-607.42108	-12.24450	809.08759	-721.65204	-31.94629	569.89722	-704.04919	-61.56911	758.68005	-718.39685	-34.43661	616.50775	
101	2.000	-695.20581	-74.61299	1542.47424	-619.23273	236.36931	1068.84766	-697.16687	285.48080	875.90546	-694.95050	73.65527	574.80249	-601.55780	218.06235	801.02930	-700.88531	266.60953	746.60724	-733.42181	248.87230	641.59607				-669.06824	13.81691	520.97986	-724.50427	242.08688	577.24817	-669.30499	202.35867	537.14594	-762.88818	252.26938	502.54224	-718.56012	69.92940	216.20911	-650.02045	-69.05733	160.87376	-711.29291	150.57544	216.71349	-764.60858	227.09001	206.46837	-608.64160	-76.09377	157.34183	-882.43848	296.14664	144.73779	-673.83960	53.34961	158.88423	-599.54700	24.30324	168.66470	-552.42499	-33.85094	164.44945	-589.04480	212.38657	175.04341	-654.57544	293.77805	155.12831	-618.94312	302.06604	157.92909	-554.12561	249.28688	166.48669	-528.14746	304.23276	146.74527	-656.50085	112.00498	1851.94739	-709.82440	285.41141	1537.47009	-517.66058	-72.95456	143.34177	-792.99023	39.73661	174.52847	-794.34772	178.68301	184.64639	-817.39142	99.43748	1064.94568	-763.57440	-42.18897	488.73639	-759.68842	-18.66869	206.71176	-875.85034	-78.68372	141.27127	-605.19354	99.15501	1353.63306	-684.73193	141.18466	580.25214	-674.18689	167.60797	158.21883	-689.67749	-75.13209	874.91986	-624.20630	-10.96450	1058.05066	-607.61646	-12.49623	809.25775	-722.15759	-32.18235	569.87073	-704.57251	-61.99460	758.64508	-718.74280	-34.61529	616.63593	
102	2.020	-694.43195	-75.03301	1542.73865	-620.24432	236.29710	1068.90247	-698.27368	285.42386	876.24579	-693.69000	73.71828	574.10394	-602.49115	218.37019	801.44409	-701.40442	266.57300	746.72949	-733.55463	248.54321	641.36566				-669.23779	13.49849	520.83954	-724.36157	242.03632	577.39398	-668.92462	202.40164	537.05847	-762.69690	252.36247	503.13550	-718.76733	69.78776	216.46390	-649.89032	-68.97717	160.70779	-711.24915	150.54002	216.56943	-764.48535	227.27571	206.59647	-608.50360	-76.05168	157.09349	-882.62329	296.28372	144.82031	-673.57996	53.30309	159.44759	-599.44586	24.07490	168.60472	-552.63220	-34.00981	164.45444	-589.04480	212.38657	175.04341	-654.61426	293.72525	155.08627	-619.06030	302.23477	157.89171	-554.14960	249.43001	166.52576	-528.21887	304.07733	146.44493	-655.95459	111.66566	1851.98145	-709.54077	284.88736	1537.37744	-517.72345	-72.50484	143.28857	-792.74023	39.48898	174.68581	-794.26270	178.73608	184.78209	-818.31598	99.20570	1065.33704	-763.92163	-41.79411	488.77124	-759.76306	-18.81698	206.66814	-875.85034	-78.68372	141.27127	-605.24457	99.01215	1353.48511	-683.95654	140.97542	580.65588	-674.18689	167.60797	158.21883	-690.43951	-75.11635	874.82135	-624.74445	-10.96155	1057.83313	-608.22131	-13.20907	809.17767	-722.40564	-31.91682	569.66296	-705.13458	-62.01316	758.61682	-718.78577	-34.60962	616.54211	
103	2.040	-693.61505	-75.16705	1542.89771	-621.17957	236.28909	1068.87805	-699.19464	285.14767	876.13129	-693.05615	73.30132	574.04285	-602.95685	218.48993	802.03857	-701.61652	266.50012	746.67676	-733.36139	248.36418	641.20813				-669.02386	12.97806	521.31055	-723.90485	241.85828	577.51379	-668.24896	202.37157	537.03400	-762.41937	252.06985	503.11722	-718.60229	69.46630	217.03967	-650.09619	-69.46058	160.40311	-710.96033	150.71104	216.54935	-764.52850	227.22353	206.68672	-608.50677	-76.31364	157.17641	-882.45593	296.22400	144.77756	-673.88525	53.39809	160.13521	-599.86615	23.88847	169.04874	-552.67627	-34.04407	164.54178	-589.03589	212.48581	175.15172	-654.69824	293.69589	155.17525	-618.95081	302.34381	157.84966	-554.14960	249.43001	166.52576	-528.12286	304.16248	146.42578	-655.17133	111.29366	1852.08484	-708.94855	284.57193	1537.70935	-517.78711	-72.78516	143.18010	-792.83429	39.49856	174.75340	-794.26270	178.73608	184.78209	-819.27075	98.61431	1065.92053	-764.90399	-41.65208	488.89871	-759.86859	-19.29897	207.26910	-875.99792	-78.69180	141.55168	-605.08588	98.93027	1353.39075	-683.07813	140.91145	580.45001	-674.18689	167.60797	158.21883	-690.98303	-75.42285	875.03503	-625.10089	-10.93946	1057.83386	-608.89648	-13.66837	809.34198	-722.55164	-31.78941	569.58179	-705.91827	-62.31708	759.13153	-719.08722	-34.54597	616.32544	
104	2.060	-692.54950	-75.25707	1543.02332	-622.57544	236.87520	1069.14294	-700.76178	284.90512	876.09869	-692.83466	73.00854	573.76642	-603.52515	218.59619	802.29089	-702.32587	266.38159	746.64337	-732.99237	247.81502	640.86035				-669.16284	12.34357	521.52490	-723.04254	241.94051	577.75031	-667.41888	202.65817	537.14752	-761.98193	252.27466	503.37173	-718.36182	69.42550	217.13365	-650.08618	-69.73007	160.30923	-710.82513	150.80061	216.56625	-764.41876	227.22873	206.64352	-608.63684	-76.58188	157.37617	-882.39648	295.94257	144.55400	-673.94330	53.09482	160.26414	-599.86560	23.88151	169.34465	-552.72443	-34.03754	164.47804	-589.03857	212.67799	175.01036	-654.44519	293.65750	155.08557	-619.01282	302.23740	157.95686	-554.22339	249.51669	166.50572	-528.10010	303.99414	146.64998	-654.51050	110.96677	1852.28418	-708.23914	284.58496	1538.06458	-517.74225	-73.15008	143.34764	-792.77362	39.35485	174.78130	-794.03064	178.79869	184.70178	-820.10181	98.33243	1066.25146	-765.15930	-41.60485	489.06625	-760.17603	-19.63887	207.55981	-875.79736	-78.79465	141.29492	-604.71057	98.86581	1353.41931	-682.01971	140.70950	580.45001	-674.17957	167.80214	158.18256	-692.33075	-75.79184	875.14807	-625.66833	-11.02049	1058.02759	-609.41876	-13.84885	809.44403	-722.69446	-32.14856	569.82886	-706.75220	-62.26525	759.30615	-719.52844	-34.69944	616.46674	
105	2.080	-691.25598	-75.76162	1543.14868	-624.08850	235.96983	1069.10071	-701.83997	285.58066	876.61414	-692.84802	72.81827	574.51764	-604.39722	219.25377	803.02679	-703.01794	266.20947	746.43115	-732.53387	248.06137	640.59869				-669.19366	11.40177	521.34277	-722.39075	241.78923	577.75488	-666.52716	202.76341	537.06152	-761.21851	251.86209	503.61441	-717.97119	69.02820	217.26231	-650.47516	-70.10068	159.77718	-710.56567	150.84711	216.59998	-764.46228	227.28806	206.83189	-608.49091	-76.79239	156.94267	-882.51361	296.16629	144.66576	-674.12396	52.48428	160.69716	-600.33539	23.71587	169.47542	-552.80432	-34.22620	164.44858	-588.97656	212.78311	175.10419	-654.60931	293.79776	154.99487	-618.99567	302.29361	157.87111	-554.16327	249.44090	166.46774	-528.21838	304.00342	146.47696	-653.52704	110.76868	1852.57788	-707.98657	284.39084	1538.53442	-517.77771	-72.82359	143.51573	-792.81702	39.36406	174.78702	-794.07037	178.62413	184.73924	-820.98224	98.01861	1066.77148	-765.50024	-41.51820	489.50186	-760.17603	-19.63887	207.55981	-875.71906	-78.62476	141.14996	-604.48108	98.57635	1353.29736	-680.55957	140.76295	580.37799	-674.04041	167.71237	158.32263	-693.28906	-75.59100	875.57745	-626.99927	-10.62611	1057.74524	-610.35461	-14.59145	809.93250	-722.95953	-32.19955	570.10132	-707.92206	-62.45303	759.52655	-719.65649	-34.65274	616.55463	
106	2.100	-689.78357	-76.15887	1543.39001	-625.91803	236.20334	1068.95642	-703.56189	285.22150	876.40619	-692.57697	72.42901	574.90106	-605.54138	219.45879	803.56665	-703.43164	266.17731	746.31665	-732.25543	248.00444	640.50433				-669.08453	11.32818	521.50323	-721.71082	241.49637	577.16864	-665.45325	202.63762	536.94537	-759.99054	251.81195	503.02429	-717.93213	68.38649	217.24426	-650.35199	-70.21760	160.05499	-710.62164	150.98991	216.47546	-764.33612	227.34032	206.63312	-608.42621	-76.76222	157.02199	-882.53021	296.19693	144.72672	-674.10687	52.57306	161.05176	-600.25677	23.67527	169.87021	-552.98633	-34.39211	164.54767	-589.03278	212.78972	175.20663	-654.52374	293.74643	155.06331	-618.91168	302.40561	157.85948	-554.13678	249.51866	166.62648	-528.14569	304.17987	146.55627	-652.47021	110.37667	1852.64038	-707.03204	283.72278	1538.80481	-517.58514	-73.03102	143.52779	-792.66766	39.15693	174.59254	-794.05884	178.62572	184.74786	-822.52338	97.97321	1067.42957	-765.71851	-41.32993	489.67300	-760.54773	-19.74449	207.51027	-875.96130	-78.84709	141.39201	-604.22656	98.46908	1353.10278	-679.57654	141.28717	580.42255	-674.04041	167.71237	158.32263	-694.91034	-75.34711	875.32379	-627.84827	-10.54300	1057.92834	-611.30963	-15.32555	810.14679	-723.07434	-32.47348	570.30609	-708.49713	-62.62550	759.64819	-720.49524	-34.73456	616.51807	
107	2.120	-688.58325	-76.23972	1543.26038	-627.69751	236.74413	1069.04663	-705.35931	283.79114	876.05133	-692.29932	72.21235	574.92908	-606.15741	219.68550	803.89075	-703.46198	266.15271	746.41992	-731.88153	248.06685	640.45074				-669.07544	10.95936	521.10632	-720.23389	242.04613	577.50299	-663.92249	202.88904	536.86060	-759.11566	251.60550	503.29510	-718.14343	67.72228	217.15895	-650.44342	-70.33161	159.46606	-710.51624	150.98241	216.42326	-764.28149	227.39740	206.52307	-608.33063	-76.93726	156.54475	-882.46729	296.20953	144.75272	-674.31281	52.05935	161.32750	-600.51788	23.30089	170.12953	-553.14386	-34.31648	164.64156	-589.02588	212.83018	175.23453	-654.44464	293.73688	155.03581	-619.03534	302.38879	157.55086	-554.23907	249.66801	166.47032	-528.10059	304.06805	146.61795	-651.33777	110.25283	1852.80823	-706.34271	283.41080	1539.27258	-517.72314	-72.93130	143.29219	-792.95551	38.93612	174.80493	-794.04224	178.61368	184.86322	-823.75220	97.43187	1068.01782	-765.91260	-41.04684	489.77924	-760.95227	-20.25002	207.66130	-875.95648	-78.79716	141.44162	-603.95026	98.53066	1352.85107	-677.91681	141.26639	580.66443	-674.15570	167.91318	158.28577	-696.44098	-75.52366	875.37927	-628.88422	-10.58257	1057.92126	-612.22205	-15.81083	810.45532	-723.17041	-32.53803	570.52759	-710.16870	-62.16221	759.24817	-720.56689	-34.61061	616.42859	
